<svg width="143" height="43" fill="none" xmlns="http://www.w3.org/2000/svg"><path d="M36 20.755c0-3.777-1.203-7.283-3.247-10.162a6.215 6.215 0 0 0 1.834-4.403c0-3.421-2.75-6.19-6.149-6.19-2.498 0-4.651 1.507-5.61 3.667A18.155 18.155 0 0 0 18 3.023c-1.665 0-3.28.22-4.811.644A6.14 6.14 0 0 0 7.579.008c-3.399 0-6.15 2.77-6.15 6.19 0 1.72.699 3.278 1.826 4.395A17.452 17.452 0 0 0 0 20.763c0 4.675 1.842 8.934 4.845 12.1l.017.018c.378.398.782.787 1.202 1.151l6.738 6.47 1.59-1.558L17.916 43l3.608-4.15 1.682 1.643 6.755-6.477c.404-.356.79-.729 1.16-1.118l.034-.034C34.158 29.689 36 25.429 36 20.754Zm-25.814-5.91c-.278-.356-.353-.729-.27-1.042.085-.314.337-.593.758-.763.42-.169.976-.22 1.556-.059.58.161 1.043.475 1.32.839.27.355.345.728.261 1.041-.084.313-.336.593-.748.762-.421.17-.976.22-1.556.06-.58-.161-1.043-.475-1.321-.839Zm12.44 10.5c-.9.448-1.96.71-2.734 1.185-.269.16-.513.347-.731.576-.202.203-.883.974-.522 2.032.37 1.084 1.556 1.82 2.91 1.837.21 0 .379.178.37.39a.371.371 0 0 1-.378.373h-.008c-1.598-.026-3.003-.89-3.55-2.177-.521 1.338-1.951 2.244-3.583 2.261h-.008a.376.376 0 0 1-.379-.372.39.39 0 0 1 .37-.39c1.354-.017 2.524-.753 2.91-1.837.186-.517.169-1.262-.639-2.117a3.485 3.485 0 0 0-.74-.576c-.774-.474-1.968-.686-2.75-1.194-.732-.576-1.17-1.287-1.17-2.058 0-.042 0-.093.009-.135.118-1.846 2.708-3.32 5.888-3.32 3.12 0 5.669 1.415 5.88 3.21.008.076.016.16.016.245.008.78-.438 1.702-1.16 2.066Zm3.28-10.492c-.277.355-.731.677-1.32.838-.58.16-1.135.11-1.556-.06-.42-.169-.673-.448-.757-.761-.084-.314-.008-.686.269-1.042.278-.356.732-.677 1.32-.838.581-.161 1.136-.11 1.557.06.42.168.673.448.757.761.084.313.008.686-.27 1.042ZM62.44 17.78h4.364c-.728-4.586-4.745-7.78-9.975-7.78C50.64 10 46 14.494 46 22.023 46 29.415 50.433 34 56.956 34 62.809 34 67 30.281 67 24.259v-2.806h-9.594v3.307h5.45c-.07 3.331-2.321 5.442-5.877 5.442-3.96 0-6.673-2.932-6.673-8.225 0-5.258 2.76-8.178 6.58-8.178 2.852 0 4.792 1.505 5.553 3.98ZM71.334 34h4.32V16.115h-4.32V34Zm2.172-20.424c1.373 0 2.494-1.025 2.494-2.282C76 10.024 74.879 9 73.506 9 72.121 9 71 10.025 71 11.294c0 1.257 1.121 2.282 2.506 2.282Zm14.187 2.629h-3.326V12h-3.974v4.205H78v3.2h2.393v9.758c-.022 3.302 2.283 4.925 5.27 4.833 1.13-.034 1.909-.263 2.337-.411l-.67-3.234c-.219.057-.67.16-1.163.16-.999 0-1.8-.365-1.8-2.034v-9.073h3.326v-3.199ZM92 34h4.241V23.805h9.73V20.16h-9.73v-6.515H107V10H92v24Zm23-24h-4v24h4V10Zm4.334 24h4.32V16.115h-4.32V34Zm2.172-20.424c1.373 0 2.494-1.025 2.494-2.282 0-1.27-1.121-2.294-2.494-2.294-1.385 0-2.506 1.025-2.506 2.294 0 1.257 1.121 2.282 2.506 2.282ZM135.448 34c4.43 0 7.254-2.599 7.552-6.299h-3.972c-.355 1.873-1.721 2.95-3.546 2.95-2.594 0-4.269-2.144-4.269-5.708 0-3.518 1.709-5.629 4.269-5.629 1.997 0 3.225 1.271 3.546 2.95H143c-.287-3.779-3.271-6.264-7.575-6.264-5.165 0-8.425 3.689-8.425 9.011 0 5.278 3.179 8.989 8.448 8.989Z" fill="#fff"/></svg>